<?xml version="1.0" encoding="UTF-8"?>
<svg id="Layer_1" data-name="Layer 1" xmlns="http://www.w3.org/2000/svg" viewBox="0 0 65 65">
  <defs>
    <style>
      .cls-1 {
        fill: #fff;
        stroke-width: 0px;
      }
    </style>
  </defs>
  <g>
    <path class="cls-1" d="m23.57,16.64c0,1.72.99,1.29.99,2.08,0,1.17-2.59,1.15-3.34,1.15-.63,0-3.07,0-3.07-1.03,0-.59.57-.57.73-1.6.12-.65.14-1.35.14-2.02,0-1.01-.02-2.91-1.46-2.91-1.23,0-1.19,1.05-1.19,1.96v2.35c0,1.68.81,1.33.81,2.06,0,1.17-2.3,1.19-3.07,1.19-2.89,0-3.56-.61-3.56-1.23,0-.81.79-.44,1.13-1.76.24-.95.24-3.62.24-4.73,0-.91-.06-1.84-.08-2.75-.04-1.44-1.25-.93-1.25-1.88,0-1.62,5.26-2.04,5.28-2.04.61,0,.65.18.65.77l-.12,3.84c-.02.38-.04,1.03.49,1.03.61,0,.87-1.8,3.13-1.8,3.72,0,3.46,3.5,3.48,4.06l.08,3.25Z"/>
    <path class="cls-1" d="m30.1,15c-.22,0-.55-.06-.55.28,0,1.01,1.31,1.86,2.26,1.86,1.52,0,2.26-.91,2.69-.91s.79.63.79,1.01c0,1.56-2.85,2.69-4.67,2.69-3.64,0-5.52-2.63-5.52-5.24,0-3.11,2.65-5.38,5.68-5.38,3.44,0,4.95,2.65,4.95,4.17,0,1.33-.61,1.52-1.25,1.52h-4.39Zm1.76-2.55c0-.73-.44-1.29-1.19-1.29-.67,0-1.21.69-1.21,1.33,0,.73.69.57,1.21.57s1.19.12,1.19-.61Z"/>
    <path class="cls-1" d="m45.01,17.95c-.99,2.69-2.29,5.32-5.58,5.32-1.46,0-3.17-.75-3.17-2.43,0-1.01.77-1.86,1.8-1.86,1.88,0,1.35,2.14,2.18,2.14.55,0,.79-.53.79-.99,0-.57-.4-1.33-.65-1.84l-2.83-5.92c-.38-.81-1.54-.57-1.54-1.5,0-.61.36-1.5,4.63-1.5.77,0,2.59.08,2.59,1.23,0,.55-.46.71-.46,1.19,0,.77.89,2.18,1.23,2.18.61,0,1.03-1.4,1.03-1.88,0-.91-.65-.85-.65-1.54,0-1.07,1.9-1.19,2.63-1.19.67,0,2.16.1,2.16,1.03,0,1.19-1.21.67-1.92,1.86-.45.71-.77,1.6-1.05,2.39l-1.19,3.3Z"/>
    <path class="cls-1" d="m53.84,12.17c-.18.38-.89,1.7-1.39,1.7s-1.21-1.31-1.4-1.7c-.57-1.11-1.03-2.63-1.03-3.88,0-1.5.71-3.09,2.43-3.09s2.43,1.6,2.43,3.09c0,1.25-.46,2.77-1.03,3.88Zm-1.39,7.76c-1.23,0-2.24-1.01-2.24-2.24s1.01-2.24,2.24-2.24,2.24,1.01,2.24,2.24-1.01,2.24-2.24,2.24Z"/>
  </g>
  <g>
    <path class="cls-1" d="m18.68,53.67c-.99,2.69-2.28,5.32-5.58,5.32-1.46,0-3.17-.75-3.17-2.43,0-1.01.77-1.86,1.8-1.86,1.88,0,1.35,2.14,2.18,2.14.55,0,.79-.53.79-.99,0-.57-.4-1.33-.65-1.84l-2.83-5.92c-.38-.81-1.54-.57-1.54-1.5,0-.61.36-1.5,4.63-1.5.77,0,2.59.08,2.59,1.23,0,.55-.46.71-.46,1.19,0,.77.89,2.18,1.23,2.18.61,0,1.03-1.39,1.03-1.88,0-.91-.65-.85-.65-1.54,0-1.07,1.9-1.19,2.63-1.19.67,0,2.16.1,2.16,1.03,0,1.19-1.21.67-1.92,1.86-.44.71-.77,1.6-1.05,2.39l-1.19,3.3Z"/>
    <path class="cls-1" d="m23.2,50.7c0-3.62,3.17-5.66,6.51-5.66,3.54,0,5.56,2.77,5.56,5.28,0,3.32-3.56,5.34-6.53,5.34s-5.54-1.76-5.54-4.95Zm5.64-3.28c-.67,0-1.03.63-.99,1.21.08,1.27.44,4.39,1.84,4.47.77.04.93-.61.93-1.25,0-.91-.4-4.43-1.78-4.43Z"/>
    <path class="cls-1" d="m41.72,51c0,.81.06,2.06,1.15,2.06,1.46,0,1.25-1.9,1.25-2.87,0-.67.02-1.54-.08-2.18-.16-1.01-1.15-.67-1.15-1.52,0-1.19,4.06-1.39,4.83-1.39s1.03.42,1.03,1.13c0,.65-.04,1.27-.04,1.92v4.06c0,1.21,1.11.65,1.11,1.62,0,1.37-3.58,1.76-4.69,1.76-1.56,0-.53-1.21-1.33-1.21-.22,0-.55.3-1.03.61-.49.3-1.13.61-2.02.61-3.84,0-3.52-3.03-3.52-6.07s-1.4-1.74-1.4-3.07,5.09-1.35,5.26-1.35c.57,0,.63.26.63.77v5.13Z"/>
    <path class="cls-1" d="m53.2,55.65c-1.35,0-2.45-1.09-2.45-2.45s1.09-2.45,2.45-2.45,2.45,1.09,2.45,2.45-1.09,2.45-2.45,2.45Z"/>
  </g>
  <g>
    <path class="cls-1" d="m9.66,34.55c0,2.39,1.19,1.52,1.19,2.59,0,1.38-2.57,1.38-3.48,1.38-3.48,0-3.62-.79-3.62-1.27,0-.73.83-.77,1.07-1.39.26-.71.3-3.64.08-4.39-.18-.71-1.21-.49-1.21-1.39,0-1.44,5.14-2.04,5.34-2.04.61,0,.63.46.63.89v5.64Zm-4-7.18c-.85,0-1.76-.38-1.76-1.38,0-1.33,2.67-1.88,3.7-1.88.81,0,1.96.26,1.96,1.27,0,1.58-2.75,1.98-3.9,1.98Z"/>
    <path class="cls-1" d="m23.77,34.67c0,.36-.02,1.03.08,1.35.22.73,1.13.38,1.13,1.23,0,1.35-2.47,1.25-3.34,1.25s-3.74.1-3.74-1.33c0-.71.87-.44,1.11-1.19.26-.83.26-3.36.26-4.35,0-.79.04-2.31-.14-3.21-.3-1.5-1.5-.97-1.5-2.12,0-1.76,5.26-2.18,5.54-2.18.69,0,.85.44.85,1.05,0,.47-.26,2.69-.26,5.58v3.92Z"/>
    <path class="cls-1" d="m25.57,33.62c0-3.62,3.17-5.66,6.51-5.66,3.54,0,5.56,2.77,5.56,5.28,0,3.32-3.56,5.34-6.53,5.34s-5.54-1.76-5.54-4.95Zm5.64-3.28c-.67,0-1.03.63-.99,1.21.08,1.27.44,4.39,1.84,4.47.77.04.93-.61.93-1.25,0-.91-.4-4.43-1.78-4.43Z"/>
    <path class="cls-1" d="m39.58,30.81c-.59-1.11-1.72-.49-1.72-1.58,0-.51.26-1.21,4.06-1.21.71,0,3.42-.04,3.42,1.03,0,.67-.77.81-.77,1.33,0,.46.75,1.98,1.25,1.98.69,0,1.4-1.72,1.4-2.12,0-.5-.69-.71-.69-1.29,0-1.01,2.22-.93,2.83-.93s2.1,0,2.1.89c0,.97-1.31.53-1.9,1.66l-3.32,6.45c-.67,1.27-1.21,1.56-1.68,1.56-.79,0-1.29-.87-1.62-1.48l-3.38-6.29Z"/>
    <path class="cls-1" d="m56.65,33.64c-.22,0-.55-.06-.55.28,0,1.01,1.31,1.86,2.26,1.86,1.52,0,2.26-.91,2.69-.91s.79.63.79,1.01c0,1.56-2.85,2.69-4.67,2.69-3.64,0-5.52-2.63-5.52-5.24,0-3.11,2.65-5.38,5.68-5.38,3.44,0,4.95,2.65,4.95,4.17,0,1.33-.61,1.52-1.25,1.52h-4.39Zm1.76-2.55c0-.73-.45-1.29-1.19-1.29-.67,0-1.21.69-1.21,1.33,0,.73.69.57,1.21.57s1.19.12,1.19-.61Z"/>
  </g>
</svg>